<mxfile host="app.diagrams.net" agent="Mozilla/5.0 (Windows NT 10.0; Win64; x64) AppleWebKit/537.36 (KHTML, like Gecko) Chrome/126.0.0.0 Safari/537.36 Edg/126.0.0.0" version="24.7.4">
  <diagram name="Page-1" id="0181we8bnKnn1cY1CEqS">
    <mxGraphModel dx="782" dy="872" grid="1" gridSize="10" guides="1" tooltips="1" connect="1" arrows="1" fold="1" page="1" pageScale="1" pageWidth="850" pageHeight="1100" math="0" shadow="0">
      <root>
        <mxCell id="0" />
        <mxCell id="1" parent="0" />
        <mxCell id="3LFAWuj5074MZv8MqvOa-1" value="User" style="rounded=0;whiteSpace=wrap;html=1;" vertex="1" parent="1">
          <mxGeometry x="90" y="274" width="120" height="60" as="geometry" />
        </mxCell>
        <mxCell id="3LFAWuj5074MZv8MqvOa-2" value="Course" style="rounded=0;whiteSpace=wrap;html=1;" vertex="1" parent="1">
          <mxGeometry x="640" y="232" width="120" height="60" as="geometry" />
        </mxCell>
        <mxCell id="3LFAWuj5074MZv8MqvOa-3" value="Module" style="rounded=0;whiteSpace=wrap;html=1;" vertex="1" parent="1">
          <mxGeometry x="290" y="630" width="120" height="60" as="geometry" />
        </mxCell>
        <mxCell id="3LFAWuj5074MZv8MqvOa-4" value="Lesson" style="rounded=0;whiteSpace=wrap;html=1;" vertex="1" parent="1">
          <mxGeometry x="280" y="910" width="120" height="60" as="geometry" />
        </mxCell>
        <mxCell id="3LFAWuj5074MZv8MqvOa-6" value="Assessment" style="rounded=0;whiteSpace=wrap;html=1;" vertex="1" parent="1">
          <mxGeometry x="550" y="790" width="120" height="60" as="geometry" />
        </mxCell>
        <mxCell id="3LFAWuj5074MZv8MqvOa-8" value="Forum" style="rounded=0;whiteSpace=wrap;html=1;" vertex="1" parent="1">
          <mxGeometry x="680" y="1033" width="120" height="60" as="geometry" />
        </mxCell>
        <mxCell id="3LFAWuj5074MZv8MqvOa-9" value="Post" style="rounded=0;whiteSpace=wrap;html=1;" vertex="1" parent="1">
          <mxGeometry x="60" y="780" width="120" height="60" as="geometry" />
        </mxCell>
        <mxCell id="3LFAWuj5074MZv8MqvOa-10" value="Certificate" style="rounded=0;whiteSpace=wrap;html=1;" vertex="1" parent="1">
          <mxGeometry x="425" y="477" width="120" height="60" as="geometry" />
        </mxCell>
        <mxCell id="3LFAWuj5074MZv8MqvOa-11" value="accesses" style="rhombus;whiteSpace=wrap;html=1;" vertex="1" parent="1">
          <mxGeometry x="385" y="222" width="80" height="80" as="geometry" />
        </mxCell>
        <mxCell id="3LFAWuj5074MZv8MqvOa-15" value="&lt;u&gt;UserID&lt;/u&gt;" style="ellipse;whiteSpace=wrap;html=1;" vertex="1" parent="1">
          <mxGeometry x="200" y="214" width="60" height="40" as="geometry" />
        </mxCell>
        <mxCell id="3LFAWuj5074MZv8MqvOa-16" value="Name" style="ellipse;whiteSpace=wrap;html=1;" vertex="1" parent="1">
          <mxGeometry x="110" y="224" width="60" height="40" as="geometry" />
        </mxCell>
        <mxCell id="3LFAWuj5074MZv8MqvOa-17" value="Email" style="ellipse;whiteSpace=wrap;html=1;" vertex="1" parent="1">
          <mxGeometry x="30" y="224" width="60" height="40" as="geometry" />
        </mxCell>
        <mxCell id="3LFAWuj5074MZv8MqvOa-18" value="Pass" style="ellipse;whiteSpace=wrap;html=1;" vertex="1" parent="1">
          <mxGeometry x="10" y="294" width="60" height="40" as="geometry" />
        </mxCell>
        <mxCell id="3LFAWuj5074MZv8MqvOa-19" value="" style="endArrow=none;html=1;rounded=0;exitX=1;exitY=0.5;exitDx=0;exitDy=0;entryX=0;entryY=0.5;entryDx=0;entryDy=0;" edge="1" parent="1" source="3LFAWuj5074MZv8MqvOa-1" target="3LFAWuj5074MZv8MqvOa-11">
          <mxGeometry width="50" height="50" relative="1" as="geometry">
            <mxPoint x="340" y="342" as="sourcePoint" />
            <mxPoint x="390" y="292" as="targetPoint" />
          </mxGeometry>
        </mxCell>
        <mxCell id="3LFAWuj5074MZv8MqvOa-20" value="" style="endArrow=none;html=1;rounded=0;exitX=1;exitY=0.5;exitDx=0;exitDy=0;entryX=0;entryY=0.5;entryDx=0;entryDy=0;" edge="1" parent="1" source="3LFAWuj5074MZv8MqvOa-11" target="3LFAWuj5074MZv8MqvOa-2">
          <mxGeometry width="50" height="50" relative="1" as="geometry">
            <mxPoint x="465" y="261.52" as="sourcePoint" />
            <mxPoint x="640" y="261.52" as="targetPoint" />
          </mxGeometry>
        </mxCell>
        <mxCell id="3LFAWuj5074MZv8MqvOa-21" value="" style="endArrow=none;html=1;rounded=0;" edge="1" parent="1" source="3LFAWuj5074MZv8MqvOa-1" target="3LFAWuj5074MZv8MqvOa-15">
          <mxGeometry width="50" height="50" relative="1" as="geometry">
            <mxPoint x="340" y="384" as="sourcePoint" />
            <mxPoint x="390" y="334" as="targetPoint" />
          </mxGeometry>
        </mxCell>
        <mxCell id="3LFAWuj5074MZv8MqvOa-22" value="" style="endArrow=none;html=1;rounded=0;" edge="1" parent="1" source="3LFAWuj5074MZv8MqvOa-16" target="3LFAWuj5074MZv8MqvOa-1">
          <mxGeometry width="50" height="50" relative="1" as="geometry">
            <mxPoint x="340" y="384" as="sourcePoint" />
            <mxPoint x="390" y="334" as="targetPoint" />
          </mxGeometry>
        </mxCell>
        <mxCell id="3LFAWuj5074MZv8MqvOa-23" value="" style="endArrow=none;html=1;rounded=0;" edge="1" parent="1" source="3LFAWuj5074MZv8MqvOa-17" target="3LFAWuj5074MZv8MqvOa-1">
          <mxGeometry width="50" height="50" relative="1" as="geometry">
            <mxPoint x="340" y="384" as="sourcePoint" />
            <mxPoint x="390" y="334" as="targetPoint" />
          </mxGeometry>
        </mxCell>
        <mxCell id="3LFAWuj5074MZv8MqvOa-24" value="" style="endArrow=none;html=1;rounded=0;" edge="1" parent="1" source="3LFAWuj5074MZv8MqvOa-18" target="3LFAWuj5074MZv8MqvOa-1">
          <mxGeometry width="50" height="50" relative="1" as="geometry">
            <mxPoint x="340" y="384" as="sourcePoint" />
            <mxPoint x="390" y="334" as="targetPoint" />
          </mxGeometry>
        </mxCell>
        <mxCell id="3LFAWuj5074MZv8MqvOa-25" value="d" style="ellipse;whiteSpace=wrap;html=1;aspect=fixed;" vertex="1" parent="1">
          <mxGeometry x="125" y="358" width="30" height="30" as="geometry" />
        </mxCell>
        <mxCell id="3LFAWuj5074MZv8MqvOa-26" value="" style="endArrow=none;html=1;rounded=0;" edge="1" parent="1" source="3LFAWuj5074MZv8MqvOa-1" target="3LFAWuj5074MZv8MqvOa-25">
          <mxGeometry width="50" height="50" relative="1" as="geometry">
            <mxPoint x="340" y="384" as="sourcePoint" />
            <mxPoint x="390" y="334" as="targetPoint" />
          </mxGeometry>
        </mxCell>
        <mxCell id="3LFAWuj5074MZv8MqvOa-27" value="Student" style="rounded=0;whiteSpace=wrap;html=1;" vertex="1" parent="1">
          <mxGeometry x="21" y="459" width="60" height="30" as="geometry" />
        </mxCell>
        <mxCell id="3LFAWuj5074MZv8MqvOa-29" value="Instructor" style="rounded=0;whiteSpace=wrap;html=1;" vertex="1" parent="1">
          <mxGeometry x="111" y="459" width="60" height="30" as="geometry" />
        </mxCell>
        <mxCell id="3LFAWuj5074MZv8MqvOa-30" value="Admin" style="rounded=0;whiteSpace=wrap;html=1;" vertex="1" parent="1">
          <mxGeometry x="201" y="459" width="60" height="30" as="geometry" />
        </mxCell>
        <mxCell id="3LFAWuj5074MZv8MqvOa-31" value="" style="endArrow=none;html=1;rounded=0;exitX=0.5;exitY=1;exitDx=0;exitDy=0;entryX=0.75;entryY=0;entryDx=0;entryDy=0;" edge="1" parent="1" source="3LFAWuj5074MZv8MqvOa-25" target="3LFAWuj5074MZv8MqvOa-27">
          <mxGeometry width="50" height="50" relative="1" as="geometry">
            <mxPoint x="340" y="378" as="sourcePoint" />
            <mxPoint x="390" y="328" as="targetPoint" />
          </mxGeometry>
        </mxCell>
        <mxCell id="3LFAWuj5074MZv8MqvOa-33" value="" style="endArrow=none;html=1;rounded=0;exitX=0.5;exitY=1;exitDx=0;exitDy=0;" edge="1" parent="1" source="3LFAWuj5074MZv8MqvOa-25" target="3LFAWuj5074MZv8MqvOa-29">
          <mxGeometry width="50" height="50" relative="1" as="geometry">
            <mxPoint x="340" y="378" as="sourcePoint" />
            <mxPoint x="390" y="328" as="targetPoint" />
          </mxGeometry>
        </mxCell>
        <mxCell id="3LFAWuj5074MZv8MqvOa-34" value="" style="endArrow=none;html=1;rounded=0;exitX=0.5;exitY=1;exitDx=0;exitDy=0;entryX=0.5;entryY=0;entryDx=0;entryDy=0;" edge="1" parent="1" source="3LFAWuj5074MZv8MqvOa-25" target="3LFAWuj5074MZv8MqvOa-30">
          <mxGeometry width="50" height="50" relative="1" as="geometry">
            <mxPoint x="150" y="388" as="sourcePoint" />
            <mxPoint x="390" y="328" as="targetPoint" />
          </mxGeometry>
        </mxCell>
        <mxCell id="3LFAWuj5074MZv8MqvOa-35" value="" style="shape=requiredInterface;html=1;verticalLabelPosition=bottom;sketch=0;rotation=135;" vertex="1" parent="1">
          <mxGeometry x="100" y="408" width="20" height="20" as="geometry" />
        </mxCell>
        <mxCell id="3LFAWuj5074MZv8MqvOa-40" value="" style="shape=requiredInterface;html=1;verticalLabelPosition=bottom;sketch=0;rotation=90;" vertex="1" parent="1">
          <mxGeometry x="131" y="418" width="20" height="20" as="geometry" />
        </mxCell>
        <mxCell id="3LFAWuj5074MZv8MqvOa-42" value="" style="shape=requiredInterface;html=1;verticalLabelPosition=bottom;sketch=0;rotation=45;" vertex="1" parent="1">
          <mxGeometry x="171" y="408" width="20" height="20" as="geometry" />
        </mxCell>
        <mxCell id="3LFAWuj5074MZv8MqvOa-43" value="&lt;u&gt;CourseID&lt;/u&gt;" style="ellipse;whiteSpace=wrap;html=1;" vertex="1" parent="1">
          <mxGeometry x="620" y="172" width="60" height="40" as="geometry" />
        </mxCell>
        <mxCell id="3LFAWuj5074MZv8MqvOa-44" value="Title" style="ellipse;whiteSpace=wrap;html=1;" vertex="1" parent="1">
          <mxGeometry x="690" y="172" width="60" height="40" as="geometry" />
        </mxCell>
        <mxCell id="3LFAWuj5074MZv8MqvOa-45" value="Description" style="ellipse;whiteSpace=wrap;html=1;" vertex="1" parent="1">
          <mxGeometry x="770" y="172" width="60" height="40" as="geometry" />
        </mxCell>
        <mxCell id="3LFAWuj5074MZv8MqvOa-46" value="InstructorID" style="ellipse;whiteSpace=wrap;html=1;" vertex="1" parent="1">
          <mxGeometry x="790" y="232" width="60" height="40" as="geometry" />
        </mxCell>
        <mxCell id="3LFAWuj5074MZv8MqvOa-47" value="" style="endArrow=none;html=1;rounded=0;exitX=0.5;exitY=1;exitDx=0;exitDy=0;" edge="1" parent="1" source="3LFAWuj5074MZv8MqvOa-43" target="3LFAWuj5074MZv8MqvOa-2">
          <mxGeometry relative="1" as="geometry">
            <mxPoint x="430" y="342" as="sourcePoint" />
            <mxPoint x="590" y="342" as="targetPoint" />
          </mxGeometry>
        </mxCell>
        <mxCell id="3LFAWuj5074MZv8MqvOa-53" value="" style="endArrow=none;html=1;rounded=0;exitX=0.5;exitY=1;exitDx=0;exitDy=0;entryX=0.5;entryY=0;entryDx=0;entryDy=0;" edge="1" parent="1" source="3LFAWuj5074MZv8MqvOa-44" target="3LFAWuj5074MZv8MqvOa-2">
          <mxGeometry width="50" height="50" relative="1" as="geometry">
            <mxPoint x="490" y="372" as="sourcePoint" />
            <mxPoint x="540" y="322" as="targetPoint" />
          </mxGeometry>
        </mxCell>
        <mxCell id="3LFAWuj5074MZv8MqvOa-54" value="" style="endArrow=none;html=1;rounded=0;entryX=0.5;entryY=1;entryDx=0;entryDy=0;exitX=0.75;exitY=0;exitDx=0;exitDy=0;" edge="1" parent="1" source="3LFAWuj5074MZv8MqvOa-2" target="3LFAWuj5074MZv8MqvOa-45">
          <mxGeometry width="50" height="50" relative="1" as="geometry">
            <mxPoint x="490" y="372" as="sourcePoint" />
            <mxPoint x="540" y="322" as="targetPoint" />
          </mxGeometry>
        </mxCell>
        <mxCell id="3LFAWuj5074MZv8MqvOa-55" value="" style="endArrow=none;html=1;rounded=0;entryX=0;entryY=0.5;entryDx=0;entryDy=0;exitX=1;exitY=0.5;exitDx=0;exitDy=0;" edge="1" parent="1" source="3LFAWuj5074MZv8MqvOa-2" target="3LFAWuj5074MZv8MqvOa-46">
          <mxGeometry width="50" height="50" relative="1" as="geometry">
            <mxPoint x="490" y="372" as="sourcePoint" />
            <mxPoint x="780" y="242" as="targetPoint" />
          </mxGeometry>
        </mxCell>
        <mxCell id="3LFAWuj5074MZv8MqvOa-56" value="acquires" style="rhombus;whiteSpace=wrap;html=1;" vertex="1" parent="1">
          <mxGeometry x="350" y="332" width="60" height="60" as="geometry" />
        </mxCell>
        <mxCell id="3LFAWuj5074MZv8MqvOa-58" value="writes" style="rhombus;whiteSpace=wrap;html=1;" vertex="1" parent="1">
          <mxGeometry x="270" y="379" width="60" height="60" as="geometry" />
        </mxCell>
        <mxCell id="3LFAWuj5074MZv8MqvOa-59" value="" style="endArrow=none;html=1;rounded=0;entryX=0;entryY=0.5;entryDx=0;entryDy=0;" edge="1" parent="1" source="3LFAWuj5074MZv8MqvOa-1" target="3LFAWuj5074MZv8MqvOa-58">
          <mxGeometry width="50" height="50" relative="1" as="geometry">
            <mxPoint x="460" y="511" as="sourcePoint" />
            <mxPoint x="283.57664233576656" y="414.42335766423344" as="targetPoint" />
          </mxGeometry>
        </mxCell>
        <mxCell id="3LFAWuj5074MZv8MqvOa-60" value="" style="endArrow=none;html=1;rounded=0;exitX=1;exitY=0.75;exitDx=0;exitDy=0;entryX=0;entryY=0;entryDx=0;entryDy=0;" edge="1" parent="1" source="3LFAWuj5074MZv8MqvOa-1" target="3LFAWuj5074MZv8MqvOa-56">
          <mxGeometry width="50" height="50" relative="1" as="geometry">
            <mxPoint x="460" y="492" as="sourcePoint" />
            <mxPoint x="510" y="442" as="targetPoint" />
          </mxGeometry>
        </mxCell>
        <mxCell id="3LFAWuj5074MZv8MqvOa-61" value="" style="endArrow=none;html=1;rounded=0;exitX=0.5;exitY=1;exitDx=0;exitDy=0;entryX=0.5;entryY=0;entryDx=0;entryDy=0;" edge="1" parent="1" source="3LFAWuj5074MZv8MqvOa-58" target="3LFAWuj5074MZv8MqvOa-9">
          <mxGeometry width="50" height="50" relative="1" as="geometry">
            <mxPoint x="460" y="437" as="sourcePoint" />
            <mxPoint x="280" y="617" as="targetPoint" />
          </mxGeometry>
        </mxCell>
        <mxCell id="3LFAWuj5074MZv8MqvOa-62" value="" style="endArrow=none;html=1;rounded=0;exitX=1;exitY=0.5;exitDx=0;exitDy=0;entryX=0.5;entryY=0;entryDx=0;entryDy=0;" edge="1" parent="1" source="3LFAWuj5074MZv8MqvOa-56" target="3LFAWuj5074MZv8MqvOa-10">
          <mxGeometry width="50" height="50" relative="1" as="geometry">
            <mxPoint x="460" y="492" as="sourcePoint" />
            <mxPoint x="510" y="442" as="targetPoint" />
          </mxGeometry>
        </mxCell>
        <mxCell id="3LFAWuj5074MZv8MqvOa-63" value="has" style="rhombus;whiteSpace=wrap;html=1;" vertex="1" parent="1">
          <mxGeometry x="580" y="600" width="60" height="60" as="geometry" />
        </mxCell>
        <mxCell id="3LFAWuj5074MZv8MqvOa-64" value="accesses" style="rhombus;whiteSpace=wrap;html=1;" vertex="1" parent="1">
          <mxGeometry x="760" y="432" width="60" height="60" as="geometry" />
        </mxCell>
        <mxCell id="3LFAWuj5074MZv8MqvOa-65" value="acquires" style="rhombus;whiteSpace=wrap;html=1;" vertex="1" parent="1">
          <mxGeometry x="670" y="640" width="60" height="60" as="geometry" />
        </mxCell>
        <mxCell id="3LFAWuj5074MZv8MqvOa-66" value="" style="endArrow=none;html=1;rounded=0;exitX=0.5;exitY=0;exitDx=0;exitDy=0;entryX=0.5;entryY=1;entryDx=0;entryDy=0;" edge="1" parent="1" source="3LFAWuj5074MZv8MqvOa-65" target="3LFAWuj5074MZv8MqvOa-2">
          <mxGeometry width="50" height="50" relative="1" as="geometry">
            <mxPoint x="690.6976744186045" y="627.6976744186047" as="sourcePoint" />
            <mxPoint x="700" y="237" as="targetPoint" />
          </mxGeometry>
        </mxCell>
        <mxCell id="3LFAWuj5074MZv8MqvOa-67" value="" style="endArrow=none;html=1;rounded=0;entryX=0.5;entryY=1;entryDx=0;entryDy=0;exitX=0.5;exitY=0;exitDx=0;exitDy=0;" edge="1" parent="1" source="3LFAWuj5074MZv8MqvOa-64" target="3LFAWuj5074MZv8MqvOa-2">
          <mxGeometry width="50" height="50" relative="1" as="geometry">
            <mxPoint x="790" y="462" as="sourcePoint" />
            <mxPoint x="510" y="442" as="targetPoint" />
          </mxGeometry>
        </mxCell>
        <mxCell id="3LFAWuj5074MZv8MqvOa-68" value="" style="endArrow=none;html=1;rounded=0;entryX=0.5;entryY=1;entryDx=0;entryDy=0;exitX=0.497;exitY=0.02;exitDx=0;exitDy=0;exitPerimeter=0;" edge="1" parent="1" source="3LFAWuj5074MZv8MqvOa-63" target="3LFAWuj5074MZv8MqvOa-2">
          <mxGeometry width="50" height="50" relative="1" as="geometry">
            <mxPoint x="650" y="452" as="sourcePoint" />
            <mxPoint x="510" y="442" as="targetPoint" />
          </mxGeometry>
        </mxCell>
        <mxCell id="3LFAWuj5074MZv8MqvOa-69" value="" style="endArrow=none;html=1;rounded=0;entryX=0;entryY=0.5;entryDx=0;entryDy=0;" edge="1" parent="1" source="3LFAWuj5074MZv8MqvOa-3" target="3LFAWuj5074MZv8MqvOa-63">
          <mxGeometry width="50" height="50" relative="1" as="geometry">
            <mxPoint x="510" y="637" as="sourcePoint" />
            <mxPoint x="580" y="527" as="targetPoint" />
          </mxGeometry>
        </mxCell>
        <mxCell id="3LFAWuj5074MZv8MqvOa-70" value="" style="endArrow=none;html=1;rounded=0;entryX=0.5;entryY=1;entryDx=0;entryDy=0;exitX=0.5;exitY=0;exitDx=0;exitDy=0;" edge="1" parent="1" source="3LFAWuj5074MZv8MqvOa-6" target="3LFAWuj5074MZv8MqvOa-65">
          <mxGeometry width="50" height="50" relative="1" as="geometry">
            <mxPoint x="530" y="553" as="sourcePoint" />
            <mxPoint x="580" y="503" as="targetPoint" />
          </mxGeometry>
        </mxCell>
        <mxCell id="3LFAWuj5074MZv8MqvOa-71" value="" style="endArrow=none;html=1;rounded=0;entryX=0.5;entryY=1;entryDx=0;entryDy=0;exitX=0.5;exitY=0;exitDx=0;exitDy=0;" edge="1" parent="1" source="3LFAWuj5074MZv8MqvOa-8" target="3LFAWuj5074MZv8MqvOa-64">
          <mxGeometry width="50" height="50" relative="1" as="geometry">
            <mxPoint x="530" y="513" as="sourcePoint" />
            <mxPoint x="580" y="463" as="targetPoint" />
          </mxGeometry>
        </mxCell>
        <mxCell id="3LFAWuj5074MZv8MqvOa-72" value="includes" style="rhombus;whiteSpace=wrap;html=1;" vertex="1" parent="1">
          <mxGeometry x="360" y="780" width="60" height="60" as="geometry" />
        </mxCell>
        <mxCell id="3LFAWuj5074MZv8MqvOa-74" value="have" style="rhombus;whiteSpace=wrap;html=1;" vertex="1" parent="1">
          <mxGeometry x="90" y="1020" width="60" height="60" as="geometry" />
        </mxCell>
        <mxCell id="3LFAWuj5074MZv8MqvOa-75" value="" style="endArrow=none;html=1;rounded=0;exitX=0.5;exitY=1;exitDx=0;exitDy=0;entryX=0.5;entryY=0;entryDx=0;entryDy=0;" edge="1" parent="1" source="3LFAWuj5074MZv8MqvOa-9" target="3LFAWuj5074MZv8MqvOa-74">
          <mxGeometry width="50" height="50" relative="1" as="geometry">
            <mxPoint x="450" y="793" as="sourcePoint" />
            <mxPoint x="500" y="743" as="targetPoint" />
          </mxGeometry>
        </mxCell>
        <mxCell id="3LFAWuj5074MZv8MqvOa-76" value="" style="endArrow=none;html=1;rounded=0;entryX=0.5;entryY=1;entryDx=0;entryDy=0;exitX=0.5;exitY=0;exitDx=0;exitDy=0;" edge="1" parent="1" source="3LFAWuj5074MZv8MqvOa-72" target="3LFAWuj5074MZv8MqvOa-3">
          <mxGeometry width="50" height="50" relative="1" as="geometry">
            <mxPoint x="450" y="793" as="sourcePoint" />
            <mxPoint x="500" y="743" as="targetPoint" />
          </mxGeometry>
        </mxCell>
        <mxCell id="3LFAWuj5074MZv8MqvOa-77" value="" style="endArrow=none;html=1;rounded=0;exitX=1;exitY=0.5;exitDx=0;exitDy=0;entryX=0;entryY=0.5;entryDx=0;entryDy=0;" edge="1" parent="1" source="3LFAWuj5074MZv8MqvOa-74" target="3LFAWuj5074MZv8MqvOa-8">
          <mxGeometry width="50" height="50" relative="1" as="geometry">
            <mxPoint x="450" y="793" as="sourcePoint" />
            <mxPoint x="500" y="743" as="targetPoint" />
          </mxGeometry>
        </mxCell>
        <mxCell id="3LFAWuj5074MZv8MqvOa-78" value="" style="endArrow=none;html=1;rounded=0;entryX=0.5;entryY=1;entryDx=0;entryDy=0;exitX=0.5;exitY=0;exitDx=0;exitDy=0;" edge="1" parent="1" source="3LFAWuj5074MZv8MqvOa-4" target="3LFAWuj5074MZv8MqvOa-72">
          <mxGeometry width="50" height="50" relative="1" as="geometry">
            <mxPoint x="450" y="793" as="sourcePoint" />
            <mxPoint x="500" y="743" as="targetPoint" />
          </mxGeometry>
        </mxCell>
        <mxCell id="3LFAWuj5074MZv8MqvOa-81" value="has" style="rhombus;whiteSpace=wrap;html=1;" vertex="1" parent="1">
          <mxGeometry x="550" y="322" width="60" height="60" as="geometry" />
        </mxCell>
        <mxCell id="3LFAWuj5074MZv8MqvOa-82" value="" style="endArrow=none;html=1;rounded=0;entryX=0.5;entryY=0;entryDx=0;entryDy=0;" edge="1" parent="1" target="3LFAWuj5074MZv8MqvOa-81">
          <mxGeometry width="50" height="50" relative="1" as="geometry">
            <mxPoint x="640" y="262" as="sourcePoint" />
            <mxPoint x="620" y="372" as="targetPoint" />
          </mxGeometry>
        </mxCell>
        <mxCell id="3LFAWuj5074MZv8MqvOa-83" value="" style="endArrow=none;html=1;rounded=0;exitX=0.5;exitY=1;exitDx=0;exitDy=0;entryX=0.5;entryY=0;entryDx=0;entryDy=0;" edge="1" parent="1" source="3LFAWuj5074MZv8MqvOa-81" target="3LFAWuj5074MZv8MqvOa-10">
          <mxGeometry width="50" height="50" relative="1" as="geometry">
            <mxPoint x="570" y="422" as="sourcePoint" />
            <mxPoint x="620" y="372" as="targetPoint" />
          </mxGeometry>
        </mxCell>
        <mxCell id="3LFAWuj5074MZv8MqvOa-94" value="Enrollment" style="rounded=0;whiteSpace=wrap;html=1;" vertex="1" parent="1">
          <mxGeometry x="100" y="33" width="120" height="60" as="geometry" />
        </mxCell>
        <mxCell id="3LFAWuj5074MZv8MqvOa-96" value="gives" style="rhombus;whiteSpace=wrap;html=1;" vertex="1" parent="1">
          <mxGeometry x="410" y="20" width="60" height="60" as="geometry" />
        </mxCell>
        <mxCell id="3LFAWuj5074MZv8MqvOa-97" value="" style="endArrow=none;html=1;rounded=0;exitX=1;exitY=0.5;exitDx=0;exitDy=0;entryX=0;entryY=0.5;entryDx=0;entryDy=0;" edge="1" parent="1" source="3LFAWuj5074MZv8MqvOa-94" target="3LFAWuj5074MZv8MqvOa-96">
          <mxGeometry width="50" height="50" relative="1" as="geometry">
            <mxPoint x="529" y="190" as="sourcePoint" />
            <mxPoint x="579" y="140" as="targetPoint" />
          </mxGeometry>
        </mxCell>
        <mxCell id="3LFAWuj5074MZv8MqvOa-98" value="" style="endArrow=none;html=1;rounded=0;exitX=1;exitY=0.5;exitDx=0;exitDy=0;entryX=0;entryY=0.5;entryDx=0;entryDy=0;" edge="1" parent="1" source="3LFAWuj5074MZv8MqvOa-96" target="3LFAWuj5074MZv8MqvOa-173">
          <mxGeometry width="50" height="50" relative="1" as="geometry">
            <mxPoint x="529" y="190" as="sourcePoint" />
            <mxPoint x="630" y="79.99999999999994" as="targetPoint" />
          </mxGeometry>
        </mxCell>
        <mxCell id="3LFAWuj5074MZv8MqvOa-99" value="gives" style="rhombus;whiteSpace=wrap;html=1;" vertex="1" parent="1">
          <mxGeometry x="395" y="112" width="60" height="60" as="geometry" />
        </mxCell>
        <mxCell id="3LFAWuj5074MZv8MqvOa-100" value="" style="endArrow=none;html=1;rounded=0;exitX=1;exitY=0.5;exitDx=0;exitDy=0;entryX=0.5;entryY=1;entryDx=0;entryDy=0;" edge="1" parent="1" source="3LFAWuj5074MZv8MqvOa-1" target="3LFAWuj5074MZv8MqvOa-99">
          <mxGeometry width="50" height="50" relative="1" as="geometry">
            <mxPoint x="360" y="230" as="sourcePoint" />
            <mxPoint x="410" y="180" as="targetPoint" />
          </mxGeometry>
        </mxCell>
        <mxCell id="3LFAWuj5074MZv8MqvOa-101" value="" style="endArrow=none;html=1;rounded=0;entryX=0.5;entryY=1;entryDx=0;entryDy=0;exitX=0;exitY=0.5;exitDx=0;exitDy=0;" edge="1" parent="1" source="3LFAWuj5074MZv8MqvOa-2" target="3LFAWuj5074MZv8MqvOa-99">
          <mxGeometry width="50" height="50" relative="1" as="geometry">
            <mxPoint x="360" y="230" as="sourcePoint" />
            <mxPoint x="410" y="180" as="targetPoint" />
          </mxGeometry>
        </mxCell>
        <mxCell id="3LFAWuj5074MZv8MqvOa-102" value="" style="endArrow=none;html=1;rounded=0;exitX=1;exitY=0.5;exitDx=0;exitDy=0;entryX=0;entryY=0.5;entryDx=0;entryDy=0;" edge="1" parent="1" source="3LFAWuj5074MZv8MqvOa-94" target="3LFAWuj5074MZv8MqvOa-99">
          <mxGeometry width="50" height="50" relative="1" as="geometry">
            <mxPoint x="360" y="170" as="sourcePoint" />
            <mxPoint x="410" y="120" as="targetPoint" />
          </mxGeometry>
        </mxCell>
        <mxCell id="3LFAWuj5074MZv8MqvOa-103" value="&lt;u&gt;ModuleID&lt;/u&gt;" style="ellipse;whiteSpace=wrap;html=1;" vertex="1" parent="1">
          <mxGeometry x="360" y="580" width="60" height="40" as="geometry" />
        </mxCell>
        <mxCell id="3LFAWuj5074MZv8MqvOa-104" value="Title" style="ellipse;whiteSpace=wrap;html=1;" vertex="1" parent="1">
          <mxGeometry x="220" y="630" width="60" height="40" as="geometry" />
        </mxCell>
        <mxCell id="3LFAWuj5074MZv8MqvOa-105" value="CourseID" style="ellipse;whiteSpace=wrap;html=1;" vertex="1" parent="1">
          <mxGeometry x="290" y="580" width="60" height="40" as="geometry" />
        </mxCell>
        <mxCell id="3LFAWuj5074MZv8MqvOa-106" value="&lt;u&gt;LessonID&lt;/u&gt;" style="ellipse;whiteSpace=wrap;html=1;" vertex="1" parent="1">
          <mxGeometry x="201" y="910" width="60" height="40" as="geometry" />
        </mxCell>
        <mxCell id="3LFAWuj5074MZv8MqvOa-107" value="ModuleID" style="ellipse;whiteSpace=wrap;html=1;" vertex="1" parent="1">
          <mxGeometry x="290" y="990" width="60" height="40" as="geometry" />
        </mxCell>
        <mxCell id="3LFAWuj5074MZv8MqvOa-108" value="Title" style="ellipse;whiteSpace=wrap;html=1;" vertex="1" parent="1">
          <mxGeometry x="210" y="960" width="60" height="40" as="geometry" />
        </mxCell>
        <mxCell id="3LFAWuj5074MZv8MqvOa-109" value="Content" style="ellipse;whiteSpace=wrap;html=1;" vertex="1" parent="1">
          <mxGeometry x="365" y="980" width="60" height="40" as="geometry" />
        </mxCell>
        <mxCell id="3LFAWuj5074MZv8MqvOa-110" value="&lt;u&gt;EnrollmentID&lt;/u&gt;" style="ellipse;whiteSpace=wrap;html=1;" vertex="1" parent="1">
          <mxGeometry x="1" y="53" width="80" height="40" as="geometry" />
        </mxCell>
        <mxCell id="3LFAWuj5074MZv8MqvOa-112" value="UserID" style="ellipse;whiteSpace=wrap;html=1;" vertex="1" parent="1">
          <mxGeometry x="25" width="60" height="40" as="geometry" />
        </mxCell>
        <mxCell id="3LFAWuj5074MZv8MqvOa-113" value="CourseID" style="ellipse;whiteSpace=wrap;html=1;" vertex="1" parent="1">
          <mxGeometry x="40" y="102" width="60" height="40" as="geometry" />
        </mxCell>
        <mxCell id="3LFAWuj5074MZv8MqvOa-114" value="EnrollmentDate" style="ellipse;whiteSpace=wrap;html=1;" vertex="1" parent="1">
          <mxGeometry x="111" y="104" width="90" height="40" as="geometry" />
        </mxCell>
        <mxCell id="3LFAWuj5074MZv8MqvOa-116" value="&lt;u&gt;AssessmentID&lt;/u&gt;" style="ellipse;whiteSpace=wrap;html=1;" vertex="1" parent="1">
          <mxGeometry x="590" y="870" width="90" height="40" as="geometry" />
        </mxCell>
        <mxCell id="3LFAWuj5074MZv8MqvOa-117" value="Title" style="ellipse;whiteSpace=wrap;html=1;" vertex="1" parent="1">
          <mxGeometry x="490" y="740" width="60" height="40" as="geometry" />
        </mxCell>
        <mxCell id="3LFAWuj5074MZv8MqvOa-118" value="Description" style="ellipse;whiteSpace=wrap;html=1;" vertex="1" parent="1">
          <mxGeometry x="520" y="863" width="60" height="40" as="geometry" />
        </mxCell>
        <mxCell id="3LFAWuj5074MZv8MqvOa-119" value="CourseID" style="ellipse;whiteSpace=wrap;html=1;" vertex="1" parent="1">
          <mxGeometry x="470" y="790" width="60" height="40" as="geometry" />
        </mxCell>
        <mxCell id="3LFAWuj5074MZv8MqvOa-120" value="&lt;u&gt;GradeID&lt;/u&gt;" style="ellipse;whiteSpace=wrap;html=1;" vertex="1" parent="1">
          <mxGeometry x="770" y="43" width="60" height="40" as="geometry" />
        </mxCell>
        <mxCell id="3LFAWuj5074MZv8MqvOa-121" value="Score" style="ellipse;whiteSpace=wrap;html=1;" vertex="1" parent="1">
          <mxGeometry x="760" y="103" width="60" height="40" as="geometry" />
        </mxCell>
        <mxCell id="3LFAWuj5074MZv8MqvOa-122" value="&lt;u&gt;EnrollmentID&lt;/u&gt;" style="ellipse;whiteSpace=wrap;html=1;" vertex="1" parent="1">
          <mxGeometry x="690" y="3" width="80" height="40" as="geometry" />
        </mxCell>
        <mxCell id="3LFAWuj5074MZv8MqvOa-124" value="&lt;u&gt;ForumID&lt;/u&gt;" style="ellipse;whiteSpace=wrap;html=1;" vertex="1" parent="1">
          <mxGeometry x="590" y="1000" width="60" height="40" as="geometry" />
        </mxCell>
        <mxCell id="3LFAWuj5074MZv8MqvOa-125" value="CourseID" style="ellipse;whiteSpace=wrap;html=1;" vertex="1" parent="1">
          <mxGeometry x="660" y="960" width="60" height="40" as="geometry" />
        </mxCell>
        <mxCell id="3LFAWuj5074MZv8MqvOa-126" value="&lt;u&gt;PostID&lt;/u&gt;" style="ellipse;whiteSpace=wrap;html=1;" vertex="1" parent="1">
          <mxGeometry x="10" y="730" width="60" height="40" as="geometry" />
        </mxCell>
        <mxCell id="3LFAWuj5074MZv8MqvOa-127" value="Content" style="ellipse;whiteSpace=wrap;html=1;" vertex="1" parent="1">
          <mxGeometry x="70" y="690" width="60" height="40" as="geometry" />
        </mxCell>
        <mxCell id="3LFAWuj5074MZv8MqvOa-128" value="Timestamp" style="ellipse;whiteSpace=wrap;html=1;" vertex="1" parent="1">
          <mxGeometry x="180" y="720" width="60" height="40" as="geometry" />
        </mxCell>
        <mxCell id="3LFAWuj5074MZv8MqvOa-129" value="ForumID" style="ellipse;whiteSpace=wrap;html=1;" vertex="1" parent="1">
          <mxGeometry x="30" y="863" width="60" height="40" as="geometry" />
        </mxCell>
        <mxCell id="3LFAWuj5074MZv8MqvOa-130" value="UserID" style="ellipse;whiteSpace=wrap;html=1;" vertex="1" parent="1">
          <mxGeometry x="200" y="770" width="60" height="40" as="geometry" />
        </mxCell>
        <mxCell id="3LFAWuj5074MZv8MqvOa-131" value="&lt;u&gt;CertificateID&lt;/u&gt;" style="ellipse;whiteSpace=wrap;html=1;" vertex="1" parent="1">
          <mxGeometry x="340" y="442" width="80" height="40" as="geometry" />
        </mxCell>
        <mxCell id="3LFAWuj5074MZv8MqvOa-132" value="IssueDate" style="ellipse;whiteSpace=wrap;html=1;" vertex="1" parent="1">
          <mxGeometry x="340" y="492" width="60" height="40" as="geometry" />
        </mxCell>
        <mxCell id="3LFAWuj5074MZv8MqvOa-133" value="UserID" style="ellipse;whiteSpace=wrap;html=1;" vertex="1" parent="1">
          <mxGeometry x="560" y="487" width="60" height="40" as="geometry" />
        </mxCell>
        <mxCell id="3LFAWuj5074MZv8MqvOa-134" value="CourseID" style="ellipse;whiteSpace=wrap;html=1;" vertex="1" parent="1">
          <mxGeometry x="560" y="442" width="60" height="40" as="geometry" />
        </mxCell>
        <mxCell id="3LFAWuj5074MZv8MqvOa-135" value="" style="endArrow=none;html=1;rounded=0;exitX=1;exitY=0.5;exitDx=0;exitDy=0;entryX=0.5;entryY=0;entryDx=0;entryDy=0;" edge="1" parent="1" source="3LFAWuj5074MZv8MqvOa-112" target="3LFAWuj5074MZv8MqvOa-94">
          <mxGeometry width="50" height="50" relative="1" as="geometry">
            <mxPoint x="160" y="100" as="sourcePoint" />
            <mxPoint x="210" y="50" as="targetPoint" />
          </mxGeometry>
        </mxCell>
        <mxCell id="3LFAWuj5074MZv8MqvOa-136" value="" style="endArrow=none;html=1;rounded=0;exitX=1;exitY=0.5;exitDx=0;exitDy=0;entryX=0;entryY=0.5;entryDx=0;entryDy=0;" edge="1" parent="1" source="3LFAWuj5074MZv8MqvOa-110" target="3LFAWuj5074MZv8MqvOa-94">
          <mxGeometry width="50" height="50" relative="1" as="geometry">
            <mxPoint x="160" y="100" as="sourcePoint" />
            <mxPoint x="210" y="50" as="targetPoint" />
            <Array as="points" />
          </mxGeometry>
        </mxCell>
        <mxCell id="3LFAWuj5074MZv8MqvOa-137" value="" style="endArrow=none;html=1;rounded=0;exitX=0.5;exitY=0;exitDx=0;exitDy=0;entryX=0;entryY=0.5;entryDx=0;entryDy=0;" edge="1" parent="1" source="3LFAWuj5074MZv8MqvOa-113" target="3LFAWuj5074MZv8MqvOa-94">
          <mxGeometry width="50" height="50" relative="1" as="geometry">
            <mxPoint x="160" y="100" as="sourcePoint" />
            <mxPoint x="210" y="50" as="targetPoint" />
          </mxGeometry>
        </mxCell>
        <mxCell id="3LFAWuj5074MZv8MqvOa-138" value="" style="endArrow=none;html=1;rounded=0;exitX=0.5;exitY=0;exitDx=0;exitDy=0;entryX=0.5;entryY=1;entryDx=0;entryDy=0;" edge="1" parent="1" source="3LFAWuj5074MZv8MqvOa-114" target="3LFAWuj5074MZv8MqvOa-94">
          <mxGeometry width="50" height="50" relative="1" as="geometry">
            <mxPoint x="205" y="142" as="sourcePoint" />
            <mxPoint x="255" y="92" as="targetPoint" />
          </mxGeometry>
        </mxCell>
        <mxCell id="3LFAWuj5074MZv8MqvOa-139" value="" style="endArrow=none;html=1;rounded=0;exitX=0.5;exitY=1;exitDx=0;exitDy=0;entryX=0.5;entryY=0;entryDx=0;entryDy=0;" edge="1" parent="1" source="3LFAWuj5074MZv8MqvOa-122" target="3LFAWuj5074MZv8MqvOa-173">
          <mxGeometry width="50" height="50" relative="1" as="geometry">
            <mxPoint x="730" y="110" as="sourcePoint" />
            <mxPoint x="690" y="50" as="targetPoint" />
          </mxGeometry>
        </mxCell>
        <mxCell id="3LFAWuj5074MZv8MqvOa-140" value="" style="endArrow=none;html=1;rounded=0;entryX=0;entryY=0.5;entryDx=0;entryDy=0;exitX=1;exitY=0.5;exitDx=0;exitDy=0;" edge="1" parent="1" source="3LFAWuj5074MZv8MqvOa-173" target="3LFAWuj5074MZv8MqvOa-120">
          <mxGeometry width="50" height="50" relative="1" as="geometry">
            <mxPoint x="750" y="79.99999999999994" as="sourcePoint" />
            <mxPoint x="780" y="60" as="targetPoint" />
          </mxGeometry>
        </mxCell>
        <mxCell id="3LFAWuj5074MZv8MqvOa-141" value="" style="endArrow=none;html=1;rounded=0;entryX=0.5;entryY=0;entryDx=0;entryDy=0;exitX=1;exitY=0.5;exitDx=0;exitDy=0;" edge="1" parent="1" source="3LFAWuj5074MZv8MqvOa-173" target="3LFAWuj5074MZv8MqvOa-121">
          <mxGeometry width="50" height="50" relative="1" as="geometry">
            <mxPoint x="750" y="79.99999999999994" as="sourcePoint" />
            <mxPoint x="780" y="60" as="targetPoint" />
          </mxGeometry>
        </mxCell>
        <mxCell id="3LFAWuj5074MZv8MqvOa-142" value="" style="endArrow=none;html=1;rounded=0;exitX=1;exitY=0.5;exitDx=0;exitDy=0;entryX=0.25;entryY=0;entryDx=0;entryDy=0;" edge="1" parent="1" source="3LFAWuj5074MZv8MqvOa-131" target="3LFAWuj5074MZv8MqvOa-10">
          <mxGeometry width="50" height="50" relative="1" as="geometry">
            <mxPoint x="450" y="500" as="sourcePoint" />
            <mxPoint x="500" y="450" as="targetPoint" />
          </mxGeometry>
        </mxCell>
        <mxCell id="3LFAWuj5074MZv8MqvOa-143" value="" style="endArrow=none;html=1;rounded=0;exitX=1;exitY=0.5;exitDx=0;exitDy=0;entryX=0;entryY=0.5;entryDx=0;entryDy=0;" edge="1" parent="1" source="3LFAWuj5074MZv8MqvOa-132" target="3LFAWuj5074MZv8MqvOa-10">
          <mxGeometry width="50" height="50" relative="1" as="geometry">
            <mxPoint x="450" y="500" as="sourcePoint" />
            <mxPoint x="500" y="450" as="targetPoint" />
          </mxGeometry>
        </mxCell>
        <mxCell id="3LFAWuj5074MZv8MqvOa-144" value="" style="endArrow=none;html=1;rounded=0;entryX=0;entryY=0.5;entryDx=0;entryDy=0;exitX=1;exitY=0;exitDx=0;exitDy=0;" edge="1" parent="1" source="3LFAWuj5074MZv8MqvOa-10" target="3LFAWuj5074MZv8MqvOa-134">
          <mxGeometry width="50" height="50" relative="1" as="geometry">
            <mxPoint x="450" y="500" as="sourcePoint" />
            <mxPoint x="500" y="450" as="targetPoint" />
          </mxGeometry>
        </mxCell>
        <mxCell id="3LFAWuj5074MZv8MqvOa-145" value="" style="endArrow=none;html=1;rounded=0;entryX=0;entryY=0.5;entryDx=0;entryDy=0;exitX=1;exitY=0.5;exitDx=0;exitDy=0;" edge="1" parent="1" source="3LFAWuj5074MZv8MqvOa-10" target="3LFAWuj5074MZv8MqvOa-133">
          <mxGeometry width="50" height="50" relative="1" as="geometry">
            <mxPoint x="450" y="500" as="sourcePoint" />
            <mxPoint x="500" y="450" as="targetPoint" />
          </mxGeometry>
        </mxCell>
        <mxCell id="3LFAWuj5074MZv8MqvOa-146" value="" style="endArrow=none;html=1;rounded=0;exitX=0.5;exitY=1;exitDx=0;exitDy=0;entryX=0.25;entryY=0;entryDx=0;entryDy=0;" edge="1" parent="1" source="3LFAWuj5074MZv8MqvOa-105" target="3LFAWuj5074MZv8MqvOa-3">
          <mxGeometry width="50" height="50" relative="1" as="geometry">
            <mxPoint x="330" y="670" as="sourcePoint" />
            <mxPoint x="380" y="620" as="targetPoint" />
          </mxGeometry>
        </mxCell>
        <mxCell id="3LFAWuj5074MZv8MqvOa-147" value="" style="endArrow=none;html=1;rounded=0;entryX=0.5;entryY=1;entryDx=0;entryDy=0;exitX=0.75;exitY=0;exitDx=0;exitDy=0;" edge="1" parent="1" source="3LFAWuj5074MZv8MqvOa-3" target="3LFAWuj5074MZv8MqvOa-103">
          <mxGeometry width="50" height="50" relative="1" as="geometry">
            <mxPoint x="330" y="670" as="sourcePoint" />
            <mxPoint x="380" y="620" as="targetPoint" />
          </mxGeometry>
        </mxCell>
        <mxCell id="3LFAWuj5074MZv8MqvOa-148" value="" style="endArrow=none;html=1;rounded=0;exitX=1;exitY=0.5;exitDx=0;exitDy=0;entryX=0;entryY=0.5;entryDx=0;entryDy=0;" edge="1" parent="1" source="3LFAWuj5074MZv8MqvOa-104" target="3LFAWuj5074MZv8MqvOa-3">
          <mxGeometry width="50" height="50" relative="1" as="geometry">
            <mxPoint x="330" y="670" as="sourcePoint" />
            <mxPoint x="380" y="620" as="targetPoint" />
          </mxGeometry>
        </mxCell>
        <mxCell id="3LFAWuj5074MZv8MqvOa-149" value="" style="endArrow=none;html=1;rounded=0;exitX=1;exitY=0.5;exitDx=0;exitDy=0;entryX=0.25;entryY=0;entryDx=0;entryDy=0;" edge="1" parent="1" source="3LFAWuj5074MZv8MqvOa-117" target="3LFAWuj5074MZv8MqvOa-6">
          <mxGeometry width="50" height="50" relative="1" as="geometry">
            <mxPoint x="590" y="820" as="sourcePoint" />
            <mxPoint x="640" y="770" as="targetPoint" />
          </mxGeometry>
        </mxCell>
        <mxCell id="3LFAWuj5074MZv8MqvOa-150" value="" style="endArrow=none;html=1;rounded=0;exitX=1;exitY=0.5;exitDx=0;exitDy=0;entryX=0;entryY=0.5;entryDx=0;entryDy=0;" edge="1" parent="1" source="3LFAWuj5074MZv8MqvOa-119" target="3LFAWuj5074MZv8MqvOa-6">
          <mxGeometry width="50" height="50" relative="1" as="geometry">
            <mxPoint x="590" y="820" as="sourcePoint" />
            <mxPoint x="640" y="770" as="targetPoint" />
          </mxGeometry>
        </mxCell>
        <mxCell id="3LFAWuj5074MZv8MqvOa-151" value="" style="endArrow=none;html=1;rounded=0;exitX=0.5;exitY=0;exitDx=0;exitDy=0;entryX=0.25;entryY=1;entryDx=0;entryDy=0;" edge="1" parent="1" source="3LFAWuj5074MZv8MqvOa-118" target="3LFAWuj5074MZv8MqvOa-6">
          <mxGeometry width="50" height="50" relative="1" as="geometry">
            <mxPoint x="590" y="820" as="sourcePoint" />
            <mxPoint x="640" y="770" as="targetPoint" />
          </mxGeometry>
        </mxCell>
        <mxCell id="3LFAWuj5074MZv8MqvOa-152" value="" style="endArrow=none;html=1;rounded=0;exitX=0.5;exitY=1;exitDx=0;exitDy=0;entryX=0.5;entryY=0;entryDx=0;entryDy=0;" edge="1" parent="1" source="3LFAWuj5074MZv8MqvOa-6" target="3LFAWuj5074MZv8MqvOa-116">
          <mxGeometry width="50" height="50" relative="1" as="geometry">
            <mxPoint x="590" y="820" as="sourcePoint" />
            <mxPoint x="640" y="770" as="targetPoint" />
          </mxGeometry>
        </mxCell>
        <mxCell id="3LFAWuj5074MZv8MqvOa-153" value="" style="endArrow=none;html=1;rounded=0;exitX=1;exitY=0.5;exitDx=0;exitDy=0;entryX=0;entryY=0;entryDx=0;entryDy=0;" edge="1" parent="1" source="3LFAWuj5074MZv8MqvOa-124" target="3LFAWuj5074MZv8MqvOa-8">
          <mxGeometry width="50" height="50" relative="1" as="geometry">
            <mxPoint x="640" y="1010" as="sourcePoint" />
            <mxPoint x="690" y="960" as="targetPoint" />
          </mxGeometry>
        </mxCell>
        <mxCell id="3LFAWuj5074MZv8MqvOa-154" value="" style="endArrow=none;html=1;rounded=0;exitX=0.5;exitY=1;exitDx=0;exitDy=0;entryX=0.25;entryY=0;entryDx=0;entryDy=0;" edge="1" parent="1" source="3LFAWuj5074MZv8MqvOa-125" target="3LFAWuj5074MZv8MqvOa-8">
          <mxGeometry width="50" height="50" relative="1" as="geometry">
            <mxPoint x="640" y="1010" as="sourcePoint" />
            <mxPoint x="690" y="960" as="targetPoint" />
          </mxGeometry>
        </mxCell>
        <mxCell id="3LFAWuj5074MZv8MqvOa-155" value="" style="endArrow=none;html=1;rounded=0;exitX=1;exitY=0.5;exitDx=0;exitDy=0;entryX=0;entryY=0.5;entryDx=0;entryDy=0;" edge="1" parent="1" source="3LFAWuj5074MZv8MqvOa-106" target="3LFAWuj5074MZv8MqvOa-4">
          <mxGeometry width="50" height="50" relative="1" as="geometry">
            <mxPoint x="320" y="950" as="sourcePoint" />
            <mxPoint x="370" y="900" as="targetPoint" />
          </mxGeometry>
        </mxCell>
        <mxCell id="3LFAWuj5074MZv8MqvOa-156" value="" style="endArrow=none;html=1;rounded=0;exitX=1;exitY=0.5;exitDx=0;exitDy=0;entryX=0;entryY=1;entryDx=0;entryDy=0;" edge="1" parent="1" source="3LFAWuj5074MZv8MqvOa-108" target="3LFAWuj5074MZv8MqvOa-4">
          <mxGeometry width="50" height="50" relative="1" as="geometry">
            <mxPoint x="320" y="950" as="sourcePoint" />
            <mxPoint x="370" y="900" as="targetPoint" />
          </mxGeometry>
        </mxCell>
        <mxCell id="3LFAWuj5074MZv8MqvOa-157" value="" style="endArrow=none;html=1;rounded=0;exitX=0.5;exitY=0;exitDx=0;exitDy=0;entryX=0.429;entryY=1;entryDx=0;entryDy=0;entryPerimeter=0;" edge="1" parent="1" source="3LFAWuj5074MZv8MqvOa-107" target="3LFAWuj5074MZv8MqvOa-4">
          <mxGeometry width="50" height="50" relative="1" as="geometry">
            <mxPoint x="320" y="950" as="sourcePoint" />
            <mxPoint x="370" y="900" as="targetPoint" />
          </mxGeometry>
        </mxCell>
        <mxCell id="3LFAWuj5074MZv8MqvOa-158" value="" style="endArrow=none;html=1;rounded=0;exitX=0;exitY=0;exitDx=0;exitDy=0;entryX=0.5;entryY=1;entryDx=0;entryDy=0;" edge="1" parent="1" source="3LFAWuj5074MZv8MqvOa-109" target="3LFAWuj5074MZv8MqvOa-4">
          <mxGeometry width="50" height="50" relative="1" as="geometry">
            <mxPoint x="320" y="950" as="sourcePoint" />
            <mxPoint x="370" y="900" as="targetPoint" />
          </mxGeometry>
        </mxCell>
        <mxCell id="3LFAWuj5074MZv8MqvOa-159" value="" style="endArrow=none;html=1;rounded=0;exitX=1;exitY=0.5;exitDx=0;exitDy=0;entryX=0.25;entryY=0;entryDx=0;entryDy=0;" edge="1" parent="1" source="3LFAWuj5074MZv8MqvOa-126" target="3LFAWuj5074MZv8MqvOa-9">
          <mxGeometry width="50" height="50" relative="1" as="geometry">
            <mxPoint x="120" y="800" as="sourcePoint" />
            <mxPoint x="170" y="750" as="targetPoint" />
          </mxGeometry>
        </mxCell>
        <mxCell id="3LFAWuj5074MZv8MqvOa-160" value="" style="endArrow=none;html=1;rounded=0;exitX=0.5;exitY=1;exitDx=0;exitDy=0;entryX=0.25;entryY=0;entryDx=0;entryDy=0;" edge="1" parent="1" source="3LFAWuj5074MZv8MqvOa-127" target="3LFAWuj5074MZv8MqvOa-9">
          <mxGeometry width="50" height="50" relative="1" as="geometry">
            <mxPoint x="90" y="800" as="sourcePoint" />
            <mxPoint x="140" y="750" as="targetPoint" />
          </mxGeometry>
        </mxCell>
        <mxCell id="3LFAWuj5074MZv8MqvOa-161" value="" style="endArrow=none;html=1;rounded=0;entryX=0;entryY=1;entryDx=0;entryDy=0;exitX=1;exitY=0;exitDx=0;exitDy=0;" edge="1" parent="1" source="3LFAWuj5074MZv8MqvOa-9" target="3LFAWuj5074MZv8MqvOa-128">
          <mxGeometry width="50" height="50" relative="1" as="geometry">
            <mxPoint x="90" y="800" as="sourcePoint" />
            <mxPoint x="140" y="750" as="targetPoint" />
          </mxGeometry>
        </mxCell>
        <mxCell id="3LFAWuj5074MZv8MqvOa-162" value="" style="endArrow=none;html=1;rounded=0;entryX=0;entryY=0.5;entryDx=0;entryDy=0;exitX=1;exitY=0.25;exitDx=0;exitDy=0;" edge="1" parent="1" source="3LFAWuj5074MZv8MqvOa-9" target="3LFAWuj5074MZv8MqvOa-130">
          <mxGeometry width="50" height="50" relative="1" as="geometry">
            <mxPoint x="150" y="800" as="sourcePoint" />
            <mxPoint x="200" y="750" as="targetPoint" />
          </mxGeometry>
        </mxCell>
        <mxCell id="3LFAWuj5074MZv8MqvOa-163" value="" style="endArrow=none;html=1;rounded=0;entryX=0.25;entryY=1;entryDx=0;entryDy=0;exitX=0.5;exitY=0;exitDx=0;exitDy=0;" edge="1" parent="1" source="3LFAWuj5074MZv8MqvOa-129" target="3LFAWuj5074MZv8MqvOa-9">
          <mxGeometry width="50" height="50" relative="1" as="geometry">
            <mxPoint x="70" y="860" as="sourcePoint" />
            <mxPoint x="120" y="810" as="targetPoint" />
          </mxGeometry>
        </mxCell>
        <mxCell id="3LFAWuj5074MZv8MqvOa-164" value="FName" style="ellipse;whiteSpace=wrap;html=1;" vertex="1" parent="1">
          <mxGeometry x="40" y="174" width="40" height="26" as="geometry" />
        </mxCell>
        <mxCell id="3LFAWuj5074MZv8MqvOa-166" value="MName" style="ellipse;whiteSpace=wrap;html=1;" vertex="1" parent="1">
          <mxGeometry x="115" y="172" width="40" height="26" as="geometry" />
        </mxCell>
        <mxCell id="3LFAWuj5074MZv8MqvOa-167" value="LName" style="ellipse;whiteSpace=wrap;html=1;" vertex="1" parent="1">
          <mxGeometry x="190" y="172" width="40" height="26" as="geometry" />
        </mxCell>
        <mxCell id="3LFAWuj5074MZv8MqvOa-168" value="" style="endArrow=none;html=1;rounded=0;exitX=0.5;exitY=1;exitDx=0;exitDy=0;entryX=0.5;entryY=0;entryDx=0;entryDy=0;" edge="1" parent="1" source="3LFAWuj5074MZv8MqvOa-164" target="3LFAWuj5074MZv8MqvOa-16">
          <mxGeometry width="50" height="50" relative="1" as="geometry">
            <mxPoint x="230" y="260" as="sourcePoint" />
            <mxPoint x="280" y="210" as="targetPoint" />
          </mxGeometry>
        </mxCell>
        <mxCell id="3LFAWuj5074MZv8MqvOa-169" value="" style="endArrow=none;html=1;rounded=0;entryX=0.5;entryY=1;entryDx=0;entryDy=0;exitX=0.5;exitY=0;exitDx=0;exitDy=0;" edge="1" parent="1" source="3LFAWuj5074MZv8MqvOa-16" target="3LFAWuj5074MZv8MqvOa-167">
          <mxGeometry width="50" height="50" relative="1" as="geometry">
            <mxPoint x="230" y="260" as="sourcePoint" />
            <mxPoint x="280" y="210" as="targetPoint" />
          </mxGeometry>
        </mxCell>
        <mxCell id="3LFAWuj5074MZv8MqvOa-170" value="" style="endArrow=none;html=1;rounded=0;exitX=0.5;exitY=1;exitDx=0;exitDy=0;entryX=0.5;entryY=0;entryDx=0;entryDy=0;" edge="1" parent="1" source="3LFAWuj5074MZv8MqvOa-166" target="3LFAWuj5074MZv8MqvOa-16">
          <mxGeometry width="50" height="50" relative="1" as="geometry">
            <mxPoint x="230" y="260" as="sourcePoint" />
            <mxPoint x="280" y="210" as="targetPoint" />
          </mxGeometry>
        </mxCell>
        <mxCell id="3LFAWuj5074MZv8MqvOa-173" value="Grade" style="shape=ext;margin=3;double=1;whiteSpace=wrap;html=1;align=center;" vertex="1" parent="1">
          <mxGeometry x="640" y="62" width="110" height="48" as="geometry" />
        </mxCell>
        <mxCell id="3LFAWuj5074MZv8MqvOa-175" value="M" style="text;html=1;align=center;verticalAlign=middle;whiteSpace=wrap;rounded=0;" vertex="1" parent="1">
          <mxGeometry x="346" y="240" width="60" height="30" as="geometry" />
        </mxCell>
        <mxCell id="3LFAWuj5074MZv8MqvOa-176" value="M" style="text;html=1;align=center;verticalAlign=middle;whiteSpace=wrap;rounded=0;" vertex="1" parent="1">
          <mxGeometry x="440" y="237" width="60" height="30" as="geometry" />
        </mxCell>
        <mxCell id="3LFAWuj5074MZv8MqvOa-177" value="M" style="text;html=1;align=center;verticalAlign=middle;whiteSpace=wrap;rounded=0;" vertex="1" parent="1">
          <mxGeometry x="545" y="607" width="60" height="30" as="geometry" />
        </mxCell>
        <mxCell id="3LFAWuj5074MZv8MqvOa-178" value="1" style="text;html=1;align=center;verticalAlign=middle;whiteSpace=wrap;rounded=0;" vertex="1" parent="1">
          <mxGeometry x="591" y="582" width="60" height="30" as="geometry" />
        </mxCell>
        <mxCell id="3LFAWuj5074MZv8MqvOa-179" value="1" style="text;html=1;align=center;verticalAlign=middle;whiteSpace=wrap;rounded=0;" vertex="1" parent="1">
          <mxGeometry x="348" y="762" width="60" height="30" as="geometry" />
        </mxCell>
        <mxCell id="3LFAWuj5074MZv8MqvOa-180" value="M" style="text;html=1;align=center;verticalAlign=middle;whiteSpace=wrap;rounded=0;" vertex="1" parent="1">
          <mxGeometry x="367" y="831" width="60" height="30" as="geometry" />
        </mxCell>
        <mxCell id="3LFAWuj5074MZv8MqvOa-182" value="1" style="text;html=1;align=center;verticalAlign=middle;whiteSpace=wrap;rounded=0;" vertex="1" parent="1">
          <mxGeometry x="680" y="620" width="60" height="30" as="geometry" />
        </mxCell>
        <mxCell id="3LFAWuj5074MZv8MqvOa-183" value="M" style="text;html=1;align=center;verticalAlign=middle;whiteSpace=wrap;rounded=0;" vertex="1" parent="1">
          <mxGeometry x="676" y="693" width="60" height="30" as="geometry" />
        </mxCell>
        <mxCell id="3LFAWuj5074MZv8MqvOa-184" value="1" style="text;html=1;align=center;verticalAlign=middle;whiteSpace=wrap;rounded=0;" vertex="1" parent="1">
          <mxGeometry x="376" y="24" width="60" height="30" as="geometry" />
        </mxCell>
        <mxCell id="3LFAWuj5074MZv8MqvOa-187" value="1" style="text;html=1;align=center;verticalAlign=middle;whiteSpace=wrap;rounded=0;" vertex="1" parent="1">
          <mxGeometry x="444" y="22" width="60" height="30" as="geometry" />
        </mxCell>
        <mxCell id="3LFAWuj5074MZv8MqvOa-188" value="1" style="text;html=1;align=center;verticalAlign=middle;whiteSpace=wrap;rounded=0;" vertex="1" parent="1">
          <mxGeometry x="746" y="414" width="60" height="30" as="geometry" />
        </mxCell>
        <mxCell id="3LFAWuj5074MZv8MqvOa-189" value="1" style="text;html=1;align=center;verticalAlign=middle;whiteSpace=wrap;rounded=0;" vertex="1" parent="1">
          <mxGeometry x="769" y="486" width="60" height="30" as="geometry" />
        </mxCell>
        <mxCell id="3LFAWuj5074MZv8MqvOa-190" value="1" style="text;html=1;align=center;verticalAlign=middle;whiteSpace=wrap;rounded=0;" vertex="1" parent="1">
          <mxGeometry x="125" y="1048" width="60" height="30" as="geometry" />
        </mxCell>
        <mxCell id="3LFAWuj5074MZv8MqvOa-191" value="M" style="text;html=1;align=center;verticalAlign=middle;whiteSpace=wrap;rounded=0;" vertex="1" parent="1">
          <mxGeometry x="76" y="1002" width="60" height="30" as="geometry" />
        </mxCell>
        <mxCell id="3LFAWuj5074MZv8MqvOa-192" value="M" style="text;html=1;align=center;verticalAlign=middle;whiteSpace=wrap;rounded=0;" vertex="1" parent="1">
          <mxGeometry x="278" y="432" width="60" height="30" as="geometry" />
        </mxCell>
        <mxCell id="3LFAWuj5074MZv8MqvOa-193" value="1" style="text;html=1;align=center;verticalAlign=middle;whiteSpace=wrap;rounded=0;" vertex="1" parent="1">
          <mxGeometry x="240" y="378" width="60" height="30" as="geometry" />
        </mxCell>
        <mxCell id="3LFAWuj5074MZv8MqvOa-194" value="1" style="text;html=1;align=center;verticalAlign=middle;whiteSpace=wrap;rounded=0;" vertex="1" parent="1">
          <mxGeometry x="334" y="322" width="60" height="30" as="geometry" />
        </mxCell>
        <mxCell id="3LFAWuj5074MZv8MqvOa-195" value="M" style="text;html=1;align=center;verticalAlign=middle;whiteSpace=wrap;rounded=0;" vertex="1" parent="1">
          <mxGeometry x="379" y="363" width="60" height="30" as="geometry" />
        </mxCell>
        <mxCell id="3LFAWuj5074MZv8MqvOa-196" value="1" style="text;html=1;align=center;verticalAlign=middle;whiteSpace=wrap;rounded=0;" vertex="1" parent="1">
          <mxGeometry x="565" y="307" width="60" height="30" as="geometry" />
        </mxCell>
        <mxCell id="3LFAWuj5074MZv8MqvOa-197" value="M" style="text;html=1;align=center;verticalAlign=middle;whiteSpace=wrap;rounded=0;" vertex="1" parent="1">
          <mxGeometry x="534" y="366" width="60" height="30" as="geometry" />
        </mxCell>
        <mxCell id="3LFAWuj5074MZv8MqvOa-198" value="" style="endArrow=none;html=1;rounded=0;exitX=1.002;exitY=0.646;exitDx=0;exitDy=0;exitPerimeter=0;entryX=0.168;entryY=0.663;entryDx=0;entryDy=0;entryPerimeter=0;" edge="1" parent="1" source="3LFAWuj5074MZv8MqvOa-94" target="3LFAWuj5074MZv8MqvOa-99">
          <mxGeometry width="50" height="50" relative="1" as="geometry">
            <mxPoint x="340" y="240" as="sourcePoint" />
            <mxPoint x="420" y="200" as="targetPoint" />
          </mxGeometry>
        </mxCell>
        <mxCell id="3LFAWuj5074MZv8MqvOa-199" value="" style="endArrow=none;html=1;rounded=0;exitX=1;exitY=0.5;exitDx=0;exitDy=0;" edge="1" parent="1" source="3LFAWuj5074MZv8MqvOa-3" target="3LFAWuj5074MZv8MqvOa-63">
          <mxGeometry width="50" height="50" relative="1" as="geometry">
            <mxPoint x="510" y="510" as="sourcePoint" />
            <mxPoint x="560" y="460" as="targetPoint" />
          </mxGeometry>
        </mxCell>
        <mxCell id="3LFAWuj5074MZv8MqvOa-200" value="" style="endArrow=none;html=1;rounded=0;exitX=0.439;exitY=0.006;exitDx=0;exitDy=0;exitPerimeter=0;entryX=0.25;entryY=0;entryDx=0;entryDy=0;" edge="1" parent="1" source="3LFAWuj5074MZv8MqvOa-4" target="3LFAWuj5074MZv8MqvOa-180">
          <mxGeometry width="50" height="50" relative="1" as="geometry">
            <mxPoint x="340" y="790" as="sourcePoint" />
            <mxPoint x="390" y="740" as="targetPoint" />
          </mxGeometry>
        </mxCell>
        <mxCell id="3LFAWuj5074MZv8MqvOa-201" value="" style="endArrow=none;html=1;rounded=0;exitX=0.417;exitY=0;exitDx=0;exitDy=0;exitPerimeter=0;entryX=0.314;entryY=0.07;entryDx=0;entryDy=0;entryPerimeter=0;" edge="1" parent="1" source="3LFAWuj5074MZv8MqvOa-6" target="3LFAWuj5074MZv8MqvOa-183">
          <mxGeometry width="50" height="50" relative="1" as="geometry">
            <mxPoint x="670" y="740" as="sourcePoint" />
            <mxPoint x="730" y="720" as="targetPoint" />
          </mxGeometry>
        </mxCell>
      </root>
    </mxGraphModel>
  </diagram>
</mxfile>
